<svg xmlns="http://www.w3.org/2000/svg" style="display:none">
<!-- 25HRS 線性 icon 系統｜金色描邊（currentColor）｜24 網格｜設計總監 -->
<defs></defs>

<symbol id="i-grant" viewBox="0 0 24 24" fill="none" stroke="currentColor" stroke-width="1.6" stroke-linecap="round" stroke-linejoin="round">
  <polyline points="3 8 12 3.5 21 8"/><line x1="3.5" y1="8" x2="20.5" y2="8"/>
  <line x1="6" y1="8" x2="6" y2="18"/><line x1="10" y1="8" x2="10" y2="18"/><line x1="14" y1="8" x2="14" y2="18"/><line x1="18" y1="8" x2="18" y2="18"/>
  <line x1="3.5" y1="21" x2="20.5" y2="21"/><line x1="5" y1="18" x2="19" y2="18"/>
</symbol>

<symbol id="i-finance" viewBox="0 0 24 24" fill="none" stroke="currentColor" stroke-width="1.6" stroke-linecap="round" stroke-linejoin="round">
  <polyline points="4 19 4 5"/><polyline points="4 19 20 19"/><polyline points="6 15 11 10 14 13 20 6"/><polyline points="20 10 20 6 16 6"/>
</symbol>

<symbol id="i-people" viewBox="0 0 24 24" fill="none" stroke="currentColor" stroke-width="1.6" stroke-linecap="round" stroke-linejoin="round">
  <circle cx="9" cy="8" r="3"/><path d="M3 20a6 6 0 0 1 12 0"/><circle cx="17" cy="9" r="2.3"/><path d="M15.5 14.5A5 5 0 0 1 21 20"/>
</symbol>

<symbol id="i-diamond" viewBox="0 0 24 24" fill="none" stroke="currentColor" stroke-width="1.6" stroke-linecap="round" stroke-linejoin="round">
  <path d="M6 3.5h12l3 5-9 12L3 8.5z"/><line x1="3.2" y1="8.5" x2="20.8" y2="8.5"/><path d="M9 3.5 8 8.5l4 11.5 4-11.5-1-5"/>
</symbol>

<symbol id="i-trophy" viewBox="0 0 24 24" fill="none" stroke="currentColor" stroke-width="1.6" stroke-linecap="round" stroke-linejoin="round">
  <path d="M7 4h10v4a5 5 0 0 1-10 0z"/><path d="M7 5H4.5v1A3 3 0 0 0 7.5 9"/><path d="M17 5h2.5v1A3 3 0 0 1 16.5 9"/>
  <line x1="12" y1="13" x2="12" y2="16"/><rect x="9.5" y="16" width="5" height="4" rx="0.5"/><line x1="8" y1="20" x2="16" y2="20"/>
</symbol>

<symbol id="i-scale" viewBox="0 0 24 24" fill="none" stroke="currentColor" stroke-width="1.6" stroke-linecap="round" stroke-linejoin="round">
  <line x1="12" y1="3.5" x2="12" y2="20"/><line x1="6" y1="6" x2="18" y2="6"/><path d="M6 6 3 12h6z"/><path d="M18 6l-3 6h6z"/><line x1="8" y1="20" x2="16" y2="20"/>
</symbol>

<symbol id="i-bank" viewBox="0 0 24 24" fill="none" stroke="currentColor" stroke-width="1.6" stroke-linecap="round" stroke-linejoin="round">
  <polyline points="3 9 12 4 21 9"/><line x1="3.5" y1="9" x2="20.5" y2="9"/>
  <line x1="6" y1="9" x2="6" y2="17"/><line x1="10" y1="9" x2="10" y2="17"/><line x1="14" y1="9" x2="14" y2="17"/><line x1="18" y1="9" x2="18" y2="17"/>
  <line x1="4" y1="20" x2="20" y2="20"/>
</symbol>

<symbol id="i-clipboard" viewBox="0 0 24 24" fill="none" stroke="currentColor" stroke-width="1.6" stroke-linecap="round" stroke-linejoin="round">
  <rect x="5" y="5" width="14" height="16" rx="2"/><path d="M9 5V4a3 3 0 0 1 6 0v1"/><polyline points="9 13 11 15 15 11"/>
</symbol>

<symbol id="i-cap" viewBox="0 0 24 24" fill="none" stroke="currentColor" stroke-width="1.6" stroke-linecap="round" stroke-linejoin="round">
  <path d="M3 8.5l9-4 9 4-9 4z"/><path d="M7 11v4.5c0 1 2.2 2 5 2s5-1 5-2V11"/><line x1="21" y1="8.5" x2="21" y2="13"/>
</symbol>

<symbol id="i-bulb" viewBox="0 0 24 24" fill="none" stroke="currentColor" stroke-width="1.6" stroke-linecap="round" stroke-linejoin="round">
  <path d="M9 18h6"/><path d="M10 21h4"/><path d="M12 3a6 6 0 0 0-3.5 10.9c.6.5.5 1.4.5 2.1h6c0-.7-.1-1.6.5-2.1A6 6 0 0 0 12 3z"/>
</symbol>

<symbol id="i-building" viewBox="0 0 24 24" fill="none" stroke="currentColor" stroke-width="1.6" stroke-linecap="round" stroke-linejoin="round">
  <rect x="6" y="3" width="12" height="18" rx="1"/><line x1="9" y1="7" x2="10" y2="7"/><line x1="14" y1="7" x2="15" y2="7"/><line x1="9" y1="11" x2="10" y2="11"/><line x1="14" y1="11" x2="15" y2="11"/><line x1="10.5" y1="21" x2="10.5" y2="17"/><line x1="13.5" y1="21" x2="13.5" y2="17"/>
</symbol>

<symbol id="i-megaphone" viewBox="0 0 24 24" fill="none" stroke="currentColor" stroke-width="1.6" stroke-linecap="round" stroke-linejoin="round">
  <path d="M4 10v4a1 1 0 0 0 1 1h2l8 4V5L7 9H5a1 1 0 0 0-1 1z"/><path d="M17 9a4 4 0 0 1 0 6"/><line x1="7" y1="15" x2="8" y2="20"/>
</symbol>

<symbol id="i-stairs" viewBox="0 0 24 24" fill="none" stroke="currentColor" stroke-width="1.6" stroke-linecap="round" stroke-linejoin="round">
  <path d="M3 20h4v-4h4v-4h4v-4h6"/>
</symbol>

<symbol id="i-coins" viewBox="0 0 24 24" fill="none" stroke="currentColor" stroke-width="1.6" stroke-linecap="round" stroke-linejoin="round">
  <circle cx="9" cy="9" r="6"/><path d="M14.5 4.2a6 6 0 0 1 0 13.6"/><path d="M9 6v6M7 8h3a1.5 1.5 0 0 1 0 3H7.5"/>
</symbol>

<symbol id="i-chart" viewBox="0 0 24 24" fill="none" stroke="currentColor" stroke-width="1.6" stroke-linecap="round" stroke-linejoin="round">
  <line x1="4" y1="20" x2="20" y2="20"/><rect x="5.5" y="12" width="3" height="6"/><rect x="10.5" y="8" width="3" height="10"/><rect x="15.5" y="14" width="3" height="4"/>
</symbol>

<symbol id="i-monitor" viewBox="0 0 24 24" fill="none" stroke="currentColor" stroke-width="1.6" stroke-linecap="round" stroke-linejoin="round">
  <rect x="3" y="4" width="18" height="12" rx="1.5"/><polyline points="6 12 9 9 11 11 14 7 17 10"/><line x1="9" y1="20" x2="15" y2="20"/><line x1="12" y1="16" x2="12" y2="20"/>
</symbol>

<symbol id="i-globe" viewBox="0 0 24 24" fill="none" stroke="currentColor" stroke-width="1.6" stroke-linecap="round" stroke-linejoin="round">
  <circle cx="12" cy="12" r="9"/><line x1="3" y1="12" x2="21" y2="12"/><path d="M12 3c3 3 3 15 0 18M12 3c-3 3-3 15 0 18"/>
</symbol>

<symbol id="i-store" viewBox="0 0 24 24" fill="none" stroke="currentColor" stroke-width="1.6" stroke-linecap="round" stroke-linejoin="round">
  <path d="M4.5 9 6 4.5h12L19.5 9"/><path d="M4.5 9a2 2 0 0 0 3.75 0 2 2 0 0 0 3.75 0 2 2 0 0 0 3.75 0 2 2 0 0 0 3.75 0"/><path d="M6 11v9h12v-9"/><rect x="10" y="14" width="4" height="6"/>
</symbol>

<symbol id="i-medal" viewBox="0 0 24 24" fill="none" stroke="currentColor" stroke-width="1.6" stroke-linecap="round" stroke-linejoin="round">
  <circle cx="12" cy="14" r="5"/><path d="M9 9.5 7 3h4M15 9.5 17 3h-4"/><path d="M10.5 14l1 1 2-2.2"/>
</symbol>

<symbol id="i-rocket" viewBox="0 0 24 24" fill="none" stroke="currentColor" stroke-width="1.6" stroke-linecap="round" stroke-linejoin="round">
  <path d="M12 3c3 2.2 4.5 6 4.5 9.5L14 16h-4l-2.5-3.5C7.5 9 9 5.2 12 3z"/><circle cx="12" cy="9.5" r="1.4"/><path d="M10 16l-2.5 4M14 16l2.5 4"/>
</symbol>

<symbol id="i-gear" viewBox="0 0 24 24" fill="none" stroke="currentColor" stroke-width="1.6" stroke-linecap="round" stroke-linejoin="round">
  <circle cx="12" cy="12" r="3"/><path d="M12 2.5v3M12 18.5v3M2.5 12h3M18.5 12h3M5.2 5.2l2.1 2.1M16.7 16.7l2.1 2.1M18.8 5.2l-2.1 2.1M7.3 16.7l-2.1 2.1"/>
</symbol>

<symbol id="i-lock" viewBox="0 0 24 24" fill="none" stroke="currentColor" stroke-width="1.6" stroke-linecap="round" stroke-linejoin="round">
  <rect x="5" y="11" width="14" height="9" rx="2"/><path d="M8 11V8a4 4 0 0 1 8 0v3"/><circle cx="12" cy="15.5" r="1.2"/>
</symbol>

<symbol id="i-doc" viewBox="0 0 24 24" fill="none" stroke="currentColor" stroke-width="1.6" stroke-linecap="round" stroke-linejoin="round">
  <path d="M7 3h7l4 4v14H7z"/><polyline points="14 3 14 7 18 7"/><line x1="9.5" y1="12" x2="15" y2="12"/><line x1="9.5" y1="16" x2="15" y2="16"/>
</symbol>

<symbol id="i-shield" viewBox="0 0 24 24" fill="none" stroke="currentColor" stroke-width="1.6" stroke-linecap="round" stroke-linejoin="round">
  <path d="M12 3l7 3v6c0 4-3 7.2-7 9-4-1.8-7-5-7-9V6z"/><polyline points="9 12 11 14 15 9.8"/>
</symbol>

<symbol id="i-link" viewBox="0 0 24 24" fill="none" stroke="currentColor" stroke-width="1.6" stroke-linecap="round" stroke-linejoin="round">
  <path d="M9.5 14.5l5-5"/><path d="M11 7l1.2-1.2a4 4 0 0 1 5.7 5.7L16.7 13"/><path d="M13 17l-1.2 1.2a4 4 0 0 1-5.7-5.7L7.3 11"/>
</symbol>

<symbol id="i-mic" viewBox="0 0 24 24" fill="none" stroke="currentColor" stroke-width="1.6" stroke-linecap="round" stroke-linejoin="round">
  <rect x="9" y="3" width="6" height="11" rx="3"/><path d="M6 11a6 6 0 0 0 12 0"/><line x1="12" y1="17" x2="12" y2="21"/><line x1="9" y1="21" x2="15" y2="21"/>
</symbol>

<symbol id="i-compass" viewBox="0 0 24 24" fill="none" stroke="currentColor" stroke-width="1.6" stroke-linecap="round" stroke-linejoin="round">
  <circle cx="12" cy="12" r="9"/><polygon points="15.5 8.5 10.5 10.5 8.5 15.5 13.5 13.5"/>
</symbol>

<symbol id="i-user" viewBox="0 0 24 24" fill="none" stroke="currentColor" stroke-width="1.6" stroke-linecap="round" stroke-linejoin="round">
  <circle cx="12" cy="8" r="4"/><path d="M4.5 21a7.5 7.5 0 0 1 15 0"/>
</symbol>

<symbol id="i-calc" viewBox="0 0 24 24" fill="none" stroke="currentColor" stroke-width="1.6" stroke-linecap="round" stroke-linejoin="round">
  <rect x="5" y="3" width="14" height="18" rx="2"/><rect x="8" y="6" width="8" height="3" rx="0.5"/><line x1="8.5" y1="13" x2="8.5" y2="13"/><line x1="12" y1="13" x2="12" y2="13"/><line x1="15.5" y1="13" x2="15.5" y2="13"/><line x1="8.5" y1="17" x2="8.5" y2="17"/><line x1="12" y1="17" x2="12" y2="17"/><line x1="15.5" y1="17" x2="15.5" y2="17"/>
</symbol>

<symbol id="i-chat" viewBox="0 0 24 24" fill="none" stroke="currentColor" stroke-width="1.6" stroke-linecap="round" stroke-linejoin="round">
  <path d="M5 5h14a1 1 0 0 1 1 1v9a1 1 0 0 1-1 1h-8l-4 4v-4H5a1 1 0 0 1-1-1V6a1 1 0 0 1 1-1z"/>
</symbol>

<symbol id="i-calendar" viewBox="0 0 24 24" fill="none" stroke="currentColor" stroke-width="1.6" stroke-linecap="round" stroke-linejoin="round">
  <rect x="4" y="5" width="16" height="16" rx="2"/><line x1="4" y1="9" x2="20" y2="9"/><line x1="8" y1="3" x2="8" y2="6"/><line x1="16" y1="3" x2="16" y2="6"/>
</symbol>

<symbol id="i-mail" viewBox="0 0 24 24" fill="none" stroke="currentColor" stroke-width="1.6" stroke-linecap="round" stroke-linejoin="round">
  <rect x="3" y="5" width="18" height="14" rx="2"/><polyline points="3.5 7 12 13 20.5 7"/>
</symbol>

<symbol id="i-pin" viewBox="0 0 24 24" fill="none" stroke="currentColor" stroke-width="1.6" stroke-linecap="round" stroke-linejoin="round">
  <path d="M12 21s7-6.2 7-11a7 7 0 0 0-14 0c0 4.8 7 11 7 11z"/><circle cx="12" cy="10" r="2.5"/>
</symbol>

<symbol id="i-tag" viewBox="0 0 24 24" fill="none" stroke="currentColor" stroke-width="1.6" stroke-linecap="round" stroke-linejoin="round">
  <path d="M4 4h7l9 9-7 7-9-9z"/><circle cx="8" cy="8" r="1.4"/>
</symbol>

</svg>
